@startuml
hide empty description
[*] --> 0 : blank
0 --> 0 : blank
0 --> 1 : +-
0 --> 2 : 0-9
0 --> 3 : dot
1 --> 2 : 0-9
1 --> 3 : dot
2 --> 2 : 0-9
2 --> 3 : dot
2 --> 5 : e
2 --> 8 : blank
3 --> 4 : 0-9
4 --> 4 :  0-9
4 --> 5 : e
4 --> 8 : blank
5 --> 6 : +-
5 --> 7 : 0-9
6 --> 7 : 0-9
7 --> 7 : 0-9
7 --> 8 : blank
8 --> 8 : blank

@enduml
